<?xml version="1.0" standalone="no"?>
<!DOCTYPE svg PUBLIC "-//W3C//DTD SVG 20010904//EN"
 "http://www.w3.org/TR/2001/REC-SVG-20010904/DTD/svg10.dtd">
<svg version="1.0" xmlns="http://www.w3.org/2000/svg"
 width="512.000000pt" height="512.000000pt" viewBox="0 0 512.000000 512.000000"
 preserveAspectRatio="xMidYMid meet">

<g transform="translate(0.000000,512.000000) scale(0.100000,-0.100000)"
fill="#000000" stroke="none">
<path d="M0 2560 l0 -2560 2560 0 2560 0 0 2560 0 2560 -2560 0 -2560 0 0
-2560z m3218 2514 c3 -22 -21 -39 -39 -28 -11 6 -12 38 -2 48 13 13 38 1 41
-20z m-125 -18 c9 -7 27 -11 40 -9 13 3 33 -4 50 -17 35 -28 36 -72 2 -105
-27 -28 -46 -31 -78 -13 -12 6 -35 11 -50 10 -23 -2 -38 7 -68 40 -42 46 -46
71 -12 76 12 2 27 10 33 18 15 18 59 18 83 0z m-245 -124 c2 -12 -1 -22 -6
-22 -15 0 -20 -59 -6 -70 15 -13 34 -87 34 -133 0 -93 -89 -187 -177 -187 -7
0 -13 -2 -13 -4 0 -1 41 -102 91 -222 50 -120 102 -244 114 -274 33 -80 57
-135 60 -138 2 -2 24 12 50 30 39 28 55 33 103 33 53 0 58 2 95 43 24 26 48
42 62 42 16 0 30 11 44 35 34 58 73 75 167 74 52 -1 89 4 102 12 30 19 53 -2
34 -31 -16 -27 -15 -65 2 -79 12 -10 18 -7 30 17 17 33 34 42 76 42 32 0 70
-39 70 -71 0 -17 5 -18 39 -13 31 5 43 2 60 -15 25 -25 27 -68 5 -99 -21 -31
-87 -31 -108 0 -9 12 -16 31 -16 41 0 15 -5 17 -35 11 -26 -4 -44 -1 -70 15
l-35 20 0 -33 c0 -50 -40 -116 -83 -139 -26 -13 -37 -26 -37 -42 0 -12 -6 -28
-14 -34 -20 -17 -76 12 -76 39 0 13 -7 20 -18 20 -22 0 -67 46 -77 78 -3 12
-13 22 -22 22 -11 0 -13 -5 -7 -17 5 -10 8 -49 7 -87 -2 -84 -42 -173 -87
-195 -20 -9 -25 -16 -17 -24 17 -17 13 -45 -9 -57 -15 -8 -24 -6 -39 9 -15 15
-23 17 -35 8 -15 -11 -8 -32 56 -189 40 -98 78 -178 85 -178 21 0 43 -44 43
-87 0 -28 17 -83 51 -165 28 -68 60 -143 70 -168 80 -199 82 -202 122 -205 20
-1 43 -8 52 -15 24 -20 65 -105 65 -134 0 -16 7 -26 23 -29 12 -4 37 -25 55
-48 29 -39 31 -45 18 -63 -14 -21 -23 -22 -83 -10 -43 8 -43 -6 1 -110 23 -55
41 -82 56 -88 12 -4 24 -17 27 -28 6 -22 11 -24 32 -11 20 13 51 -5 51 -29 0
-10 -4 -22 -10 -25 -5 -3 -10 -16 -10 -28 0 -13 -7 -32 -15 -44 -15 -21 -12
-31 41 -160 31 -76 69 -169 86 -206 16 -38 28 -70 26 -72 -2 -2 -41 12 -87 31
-77 32 -84 34 -96 18 -17 -23 -49 -11 -42 16 9 35 -12 33 -47 -4 -40 -43 -72
-46 -114 -11 -19 15 -33 21 -37 15 -11 -18 -54 -11 -65 10 -17 32 5 63 41 58
28 -4 49 17 32 32 -13 11 -943 393 -956 393 -11 0 -936 -381 -946 -390 -3 -2
4 -9 14 -17 20 -14 15 -46 -8 -46 -10 0 -12 -12 -7 -52 12 -88 -23 -160 -89
-188 -20 -8 -34 -23 -41 -46 -7 -19 -24 -41 -38 -49 -15 -9 -20 -15 -12 -14
30 3 40 -1 40 -15 0 -8 16 -23 35 -35 19 -11 39 -31 45 -45 5 -13 14 -27 19
-31 16 -9 13 -100 -3 -140 -8 -19 -24 -40 -35 -47 -29 -18 -26 -25 14 -38 66
-22 83 -77 39 -129 -29 -35 -43 -37 -83 -16 -24 12 -56 65 -47 77 2 1 6 15 10
30 l6 27 -53 -6 c-95 -10 -178 56 -192 152 -5 33 1 53 29 110 29 61 32 72 20
86 -18 20 -18 59 1 86 8 11 19 33 25 47 9 24 7 28 -15 36 -27 10 -45 45 -45
86 l0 24 -50 -20 c-28 -11 -50 -17 -50 -14 0 6 25 67 111 269 179 424 215 520
198 527 -41 16 -50 71 -18 112 17 22 28 27 57 24 35 -3 36 -2 63 65 23 56 26
69 14 74 -21 8 -18 44 4 50 33 8 55 52 171 333 62 151 125 304 140 340 62 145
492 1186 493 1195 1 6 -10 9 -25 7 -15 -1 -41 4 -57 13 -39 20 -38 20 -46 -15
-11 -50 -81 -80 -113 -48 -9 9 -19 5 -45 -20 -18 -18 -43 -32 -55 -32 -15 0
-26 -9 -32 -25 -5 -14 -31 -40 -57 -58 -27 -17 -70 -54 -98 -80 -61 -60 -78
-69 -110 -61 -29 7 -29 7 -14 -35 8 -22 17 -31 34 -31 36 0 75 -37 75 -71 0
-34 -39 -79 -67 -79 -25 0 -63 28 -63 46 0 11 -8 14 -32 9 -28 -5 -39 0 -70
29 -27 25 -38 43 -38 64 0 43 34 81 81 88 43 7 43 7 28 36 -6 11 -8 31 -4 45
7 28 71 94 143 147 42 30 53 34 90 29 l41 -6 -1 37 c-1 31 6 42 53 86 52 48
64 54 102 51 12 -2 17 5 17 21 0 29 26 68 46 68 17 0 17 8 0 40 -10 17 -11 30
-5 42 11 21 49 24 67 6 9 -9 15 -8 24 5 7 9 33 27 58 39 40 20 46 27 50 63 4
35 9 40 32 43 22 3 30 -2 40 -25 12 -27 55 -72 70 -73 4 0 17 23 29 50 12 28
34 61 50 74 36 31 112 43 143 23 20 -14 25 -13 56 14 39 32 54 32 58 1z m172
-82 c11 -11 20 -29 20 -40 0 -13 7 -20 20 -20 25 0 37 -27 21 -43 -9 -9 -16
-9 -30 0 -15 10 -22 9 -31 -2 -21 -25 -76 -19 -99 11 -12 15 -21 34 -21 44 0
10 9 29 21 44 25 32 70 35 99 6z m273 -22 c15 -23 1 -48 -27 -48 -33 0 -46 38
-20 57 21 15 34 13 47 -9z m90 -20 c17 -26 1 -50 -30 -46 -34 4 -43 36 -17 55
21 15 34 13 47 -9z m-445 -121 c4 -20 -25 -34 -40 -19 -15 15 -1 44 19 40 10
-2 19 -11 21 -21z m886 -483 c8 -21 -1 -34 -25 -34 -12 0 -19 7 -19 18 0 34
33 45 44 16z m93 -62 c7 -5 15 -29 18 -55 5 -41 4 -47 -13 -47 -22 0 -72 50
-72 71 0 32 39 49 67 31z m233 -8 c11 -12 11 -18 -2 -31 -19 -18 -38 -10 -38
16 0 33 20 40 40 15z m-32 -151 c31 -34 29 -78 -7 -114 -16 -16 -38 -29 -48
-29 -23 0 -68 28 -112 68 -27 27 -32 37 -27 60 11 44 32 53 106 46 52 -5 70
-11 88 -31z m-423 -98 c0 -30 -39 -27 -43 3 -3 20 0 23 20 20 15 -2 23 -10 23
-23z m-2063 3 c8 -7 25 -29 37 -49 20 -35 21 -37 3 -59 -18 -22 -19 -22 -67
-5 -27 9 -53 22 -57 28 -14 22 -8 57 12 77 23 23 49 26 72 8z m2136 -12 c4
-21 -14 -37 -35 -29 -14 5 -18 35 -6 47 12 12 38 1 41 -18z m260 -58 c-2 -15
-10 -23 -23 -23 -13 0 -21 8 -23 23 -3 18 1 22 23 22 22 0 26 -4 23 -22z
m-2198 -24 c11 -12 11 -18 -2 -31 -19 -18 -38 -10 -38 16 0 33 20 40 40 15z
m2399 -70 c43 -62 40 -85 -12 -88 -32 -2 -29 -19 6 -41 39 -25 48 -70 19 -105
-23 -29 -73 -31 -102 -5 -26 24 -26 76 0 100 26 24 25 29 -10 42 -77 29 -53
143 31 143 33 0 41 -5 68 -46z m-2681 14 c-2 -15 -10 -23 -23 -23 -13 0 -21 8
-23 23 -3 18 1 22 23 22 22 0 26 -4 23 -22z m70 -12 c4 -21 -14 -37 -35 -29
-14 5 -18 35 -6 47 12 12 38 1 41 -18z m2444 -41 c14 -30 -3 -55 -38 -55 -17
0 -22 -4 -18 -15 15 -39 -56 -63 -76 -25 -13 25 3 60 28 60 10 0 22 12 29 30
15 39 58 42 75 5z m-707 -15 c0 -20 -6 -26 -26 -28 -28 -3 -43 16 -32 44 3 9
15 14 32 12 20 -2 26 -8 26 -28z m-1674 -86 c9 -8 25 -36 34 -62 10 -26 26
-56 36 -68 42 -46 15 -77 -61 -70 -46 4 -59 11 -96 47 -49 48 -61 86 -42 126
24 51 88 64 129 27z m-163 -16 c-2 -15 -10 -23 -23 -23 -13 0 -21 8 -23 23 -3
18 1 22 23 22 22 0 26 -4 23 -22z m399 -14 c7 -19 -20 -49 -36 -40 -12 8 -15
39 -4 49 12 12 33 7 40 -9z m2113 -54 c51 -51 -5 -129 -70 -96 -29 14 -30 14
-30 -9 0 -24 -41 -65 -65 -65 -6 0 -20 -9 -30 -20 -10 -11 -36 -23 -57 -26
-21 -4 -38 -10 -38 -14 0 -15 -50 -29 -74 -20 -44 16 -47 92 -5 105 11 4 27
22 35 41 8 20 26 40 42 46 15 7 40 23 55 35 36 29 84 30 114 1 13 -12 23 -16
23 -10 0 19 38 52 60 52 11 0 29 -9 40 -20z m-2055 -15 c0 -13 -8 -21 -22 -23
-17 -3 -23 2 -23 16 0 10 3 22 7 26 13 13 38 1 38 -19z m2293 -61 c6 -40 -48
-56 -62 -18 -10 26 5 45 33 42 17 -2 27 -10 29 -24z m-58 -64 c0 -29 -35 -44
-54 -24 -9 8 -16 19 -16 24 0 5 7 16 16 24 19 20 54 5 54 -24z m-704 -65 c4
-8 1 -22 -6 -30 -8 -10 -9 -15 -2 -15 6 0 14 5 17 10 11 18 74 11 95 -10 11
-11 20 -24 20 -30 0 -5 18 -10 40 -10 48 0 80 -27 80 -68 0 -46 -25 -72 -71
-72 -33 0 -43 5 -56 29 -15 25 -21 28 -54 24 -31 -5 -42 -1 -64 21 -30 30 -45
26 -45 -11 0 -55 -67 -83 -117 -48 -43 30 -36 105 11 126 13 6 29 22 35 35 6
15 22 27 40 30 16 4 32 12 35 20 7 19 35 18 42 -1z m-1718 -57 c-2 -15 -10
-23 -23 -23 -13 0 -21 8 -23 23 -3 18 1 22 23 22 22 0 26 -4 23 -22z m1500
-16 c3 -16 -2 -22 -17 -22 -24 0 -35 15 -27 36 9 23 40 13 44 -14z m560 -6 c4
-21 -14 -37 -35 -29 -14 5 -18 35 -6 47 12 12 38 1 41 -18z m-2003 -41 c0 -30
-39 -27 -43 3 -3 20 0 23 20 20 15 -2 23 -10 23 -23z m1535 -195 c0 -24 -26
-38 -42 -22 -16 16 -2 42 22 42 13 0 20 -7 20 -20z m-1901 -456 c1 -11 10 -27
19 -37 14 -16 14 -19 0 -33 -17 -18 -38 -11 -38 11 0 7 -12 15 -27 17 -23 2
-29 9 -31 33 -5 39 23 61 52 41 12 -7 23 -22 25 -32z m-60 -60 c37 -47 21
-113 -32 -135 -26 -11 -35 -10 -68 8 l-37 20 -6 -27 c-3 -16 -19 -38 -35 -49
-26 -19 -29 -26 -24 -55 4 -28 0 -39 -20 -60 -53 -53 -131 -20 -126 52 3 39
-5 62 -22 62 -5 0 -9 -10 -9 -22 0 -24 -26 -58 -45 -58 -7 0 -20 9 -30 20 -15
17 -16 24 -7 45 6 14 17 25 23 25 7 0 18 8 25 18 11 14 16 15 33 5 13 -8 22
-9 26 -3 9 14 21 12 38 -5 13 -13 15 -8 14 36 -2 43 2 54 22 70 16 13 37 20
60 18 44 -2 69 8 98 38 32 34 94 32 122 -3z m-531 -230 c2 -12 -4 -24 -12 -27
-19 -7 -40 18 -32 39 8 22 40 13 44 -12z m2930 14 c18 -18 14 -46 -7 -58 -15
-7 -23 -6 -35 6 -20 19 -20 29 0 48 19 19 26 20 42 4z m-3162 -25 c6 -13 18
-31 28 -42 9 -10 19 -35 23 -54 5 -31 1 -40 -25 -67 -39 -39 -74 -39 -113 -1
-34 34 -36 59 -10 115 11 23 22 49 25 59 8 26 57 19 72 -10z m174 -33 c46 -46
5 -120 -58 -103 -20 5 -42 41 -42 68 0 22 37 55 60 55 11 0 29 -9 40 -20z
m548 -23 c4 -20 -25 -34 -40 -19 -15 15 -1 44 19 40 10 -2 19 -11 21 -21z
m-240 -119 c-2 -15 -10 -23 -23 -23 -13 0 -21 8 -23 23 -3 18 1 22 23 22 22 0
26 -4 23 -22z m-276 -58 c-4 -65 -25 -85 -56 -54 -20 19 -20 29 -1 48 8 8 15
21 15 29 0 19 11 28 30 24 11 -2 14 -13 12 -47z m113 -5 c0 -30 -39 -27 -43 3
-3 20 0 23 20 20 15 -2 23 -10 23 -23z m2915 -161 c11 -12 11 -18 -2 -31 -19
-18 -38 -10 -38 16 0 33 20 40 40 15z m-1129 -236 c95 -47 177 -130 222 -225
31 -65 32 -74 32 -189 0 -118 -1 -121 -37 -195 -47 -95 -130 -177 -225 -222
-65 -30 -74 -32 -188 -32 -114 0 -123 2 -188 32 -95 45 -178 127 -225 222 -36
74 -37 77 -37 195 0 115 2 124 32 189 36 76 116 166 183 205 86 51 136 63 251
60 99 -3 110 -6 180 -40z m741 -118 c7 -11 21 -20 30 -20 11 0 18 -8 18 -19 0
-25 -16 -35 -38 -25 -9 4 -29 6 -44 5 -18 -2 -30 4 -38 18 -15 29 3 61 35 61
14 0 30 -9 37 -20z m82 -116 c9 -8 16 -20 16 -26 0 -16 -31 -48 -46 -48 -17 0
-44 28 -44 45 0 18 27 45 45 45 7 0 21 -7 29 -16z m154 -60 c6 -40 -48 -56
-62 -18 -10 26 5 45 33 42 17 -2 27 -10 29 -24z m-2110 -47 c-5 -37 -67 -33
-68 5 0 4 7 14 16 22 21 22 56 3 52 -27z m1912 -12 c13 -14 29 -25 36 -25 24
0 73 -73 80 -117 10 -67 -11 -126 -66 -184 -43 -45 -45 -51 -28 -60 22 -12 24
-47 2 -56 -23 -9 -49 10 -48 35 0 18 -3 19 -19 10 -11 -6 -44 -11 -73 -12 -41
-1 -60 4 -84 22 -17 13 -38 21 -47 18 -20 -8 -81 22 -94 46 -16 30 -1 76 30
93 21 10 35 31 52 76 24 66 85 139 117 139 9 0 28 9 42 20 34 27 72 25 100 -5z
m168 -38 c-5 -37 -67 -33 -68 5 0 4 7 14 16 22 21 22 56 3 52 -27z m-1998
-163 c11 -12 11 -18 -2 -31 -19 -18 -38 -10 -38 16 0 33 20 40 40 15z m100
-150 c11 -12 11 -18 -2 -31 -19 -18 -38 -10 -38 16 0 33 20 40 40 15z m1390
-34 c24 -24 26 -57 4 -88 -9 -13 -14 -33 -11 -44 7 -24 -15 -73 -36 -81 -9 -3
-12 -16 -9 -36 7 -49 -20 -81 -68 -81 -29 0 -43 6 -54 22 -22 31 -20 71 4 93
17 15 20 26 14 61 -5 39 -4 44 25 65 19 14 31 32 31 46 0 28 33 63 60 63 11 0
29 -9 40 -20z m310 -91 c0 -24 -27 -36 -48 -22 -23 14 -25 29 -7 47 21 20 55
5 55 -25z m-502 -11 c16 -16 15 -53 -3 -68 -20 -17 -54 -3 -61 26 -11 42 34
72 64 42z m-1166 -55 c9 -10 18 -27 20 -38 2 -11 10 -19 17 -17 44 10 75 -36
46 -68 -12 -13 -25 -17 -45 -14 -19 4 -48 -4 -94 -26 -72 -35 -101 -35 -136 0
-27 27 -25 63 6 91 14 13 41 39 60 57 39 38 100 45 126 15z m1036 -21 c3 -16
-2 -22 -17 -22 -24 0 -35 15 -27 36 9 23 40 13 44 -14z m62 -7 c15 -18 5 -35
-21 -35 -12 0 -19 7 -19 18 0 33 20 42 40 17z m-687 -88 c9 -20 23 -37 31 -37
8 0 23 -12 33 -26 16 -22 22 -24 46 -15 22 9 35 7 58 -4 30 -16 40 -6 14 15
-20 17 -19 39 3 46 9 3 31 12 47 19 78 34 115 43 175 41 59 -1 65 -3 68 -23 3
-20 -1 -23 -27 -23 -28 0 -31 -3 -31 -29 0 -33 -39 -71 -72 -71 -10 0 -30 -7
-43 -16 -24 -16 -38 -15 -77 1 -15 6 -17 3 -12 -23 5 -24 1 -36 -19 -56 -43
-43 -96 -32 -132 27 -8 14 -33 18 -130 23 -115 5 -121 7 -142 32 -12 15 -32
37 -44 49 -24 25 -19 56 8 51 10 -1 29 5 43 15 16 11 44 17 81 17 39 0 61 5
69 15 18 22 32 14 53 -28z m654 -69 c13 -12 23 -30 23 -40 0 -12 7 -18 21 -18
32 0 22 -45 -11 -46 -14 0 -33 -3 -42 -7 -10 -4 -25 -9 -33 -12 -8 -2 -15 -13
-15 -24 0 -24 -34 -45 -60 -38 -11 3 -21 -1 -24 -9 -12 -32 -66 -11 -66 26 0
16 41 33 52 22 7 -7 19 -3 36 14 21 18 24 26 14 36 -19 19 -14 69 10 95 27 29
65 29 95 1z m-1142 -149 c0 -15 -7 -25 -18 -27 -22 -4 -33 24 -17 43 18 21 35
13 35 -16z m313 -3 c5 -23 -23 -47 -44 -39 -15 5 -19 44 -7 57 13 13 48 1 51
-18z m40 -68 c-2 -15 -10 -23 -23 -23 -13 0 -21 8 -23 23 -3 18 1 22 23 22 22
0 26 -4 23 -22z m440 0 c-2 -15 -10 -23 -23 -23 -13 0 -21 8 -23 23 -3 18 1
22 23 22 22 0 26 -4 23 -22z"/>
</g>
</svg>
